<?xml version="1.0" encoding="UTF-8" standalone="no"?>
<svg
   xmlns:rdf="http://www.w3.org/1999/02/22-rdf-syntax-ns#"
   xmlns:svg="http://www.w3.org/2000/svg"
   xmlns="http://www.w3.org/2000/svg"
   width="494"
   height="521"
   viewBox="0 0 494 521">

  <path
     id="path3823"
     d="M 1,260.51275 V -0.10385807 L 129.75,0.28188822 C 242.7788,0.62053242 260.02633,0.87114776 271,2.3343221 312.20818,7.8288155 341.2196,17.850675 368.26035,35.932454 374.07346,39.819604 379.23361,43 379.72735,43 c 1.51689,0 18.02962,11.623902 26.11782,18.38527 4.21016,3.5195 12.63825,11.51011 18.72909,17.756911 C 470.09791,125.83147 493.01867,186.76148 492.98588,261 c -0.0269,60.78775 -16.93646,112.1985 -52.45905,159.49272 -41.05618,54.66154 -99.5814,86.4641 -176.52683,95.92454 -30.41832,3.73994 -35.09118,3.87438 -149.25,4.29399 L 1,521.12936 Z M 226,420.524 c 58.06055,-7.22832 100.96951,-40.532 118.09996,-91.66298 1.66933,-4.98259 2.83797,-9.25642 2.59699,-9.4974 -0.24098,-0.24098 -5.20002,2.20994 -11.02009,5.44649 -16.42223,9.13244 -37.37713,16.87887 -55.67686,20.58215 -21.86427,4.42462 -29.84679,4.92582 -88,5.5253 l -56.5,0.58244 -0.26279,35.89393 -0.26278,35.89392 39.26278,-0.60383 C 200.23167,422.28425 217.72421,421.5543 226,420.524 Z m -8,-169.86808 c 13.9408,-1.98313 22.67626,-4.0734 30.12464,-7.20838 20.16712,-8.48823 34.16821,-24.09515 39.77861,-44.34097 2.75658,-9.94744 4.47609,-26.90399 3.6899,-36.38707 -2.30524,-27.80617 -20.34813,-49.01583 -49.45746,-58.13795 C 225.26426,99.294482 218.85458,98.719636 175.5,98.605398 L 135.5,98.5 l -0.25854,76 c -0.1422,41.8 -0.0213,76.62122 0.26869,77.38049 0.73813,1.93271 67.23448,0.94556 82.48985,-1.22457 z"
     style="fill:#fdd302" />
  <path
     id="path3821"
     d="M 1,260.44807 V -0.10385807 L 129.75,0.28188822 C 268.00137,0.69610145 266.45802,0.6422854 293.62284,5.9960728 366.86624,20.431272 414.38597,62.681982 426.9052,124.5 c 11.5488,57.02615 -3.50856,119.2055 -38.52642,159.09477 -6.89647,7.85585 -20.67832,19.84276 -32.94985,28.65845 -22.39961,16.09157 -49.05257,27.80131 -75.42893,33.13904 -21.86427,4.42462 -29.84679,4.92582 -88,5.5253 L 135.5,351.5 135.24435,436.25 134.98871,521 H 67.994353 1 Z m 217,-9.79215 c 13.9408,-1.98313 22.67626,-4.0734 30.12464,-7.20838 20.16712,-8.48823 34.16821,-24.09515 39.77861,-44.34097 2.75658,-9.94744 4.47609,-26.90399 3.6899,-36.38707 -2.30524,-27.80617 -20.34813,-49.01583 -49.45746,-58.13795 C 225.26426,99.294482 218.85458,98.719636 175.5,98.605398 L 135.5,98.5 l -0.25854,76 c -0.1422,41.8 -0.0213,76.62122 0.26869,77.38049 0.73813,1.93271 67.23448,0.94556 82.48985,-1.22457 z"
     style="fill:#005ab9" />
</svg>
