<?xml version="1.0" encoding="UTF-8" standalone="no"?>
<svg
   xmlns:dc="http://purl.org/dc/elements/1.1/"
   xmlns:cc="http://creativecommons.org/ns#"
   xmlns:rdf="http://www.w3.org/1999/02/22-rdf-syntax-ns#"
   xmlns:svg="http://www.w3.org/2000/svg"
   xmlns="http://www.w3.org/2000/svg"
   xmlns:sodipodi="http://sodipodi.sourceforge.net/DTD/sodipodi-0.dtd"
   xmlns:inkscape="http://www.inkscape.org/namespaces/inkscape"
   width="494"
   height="521"
   viewBox="0 0 494 521"
   version="1.1"
   id="svg3811"
   sodipodi:docname="logo3.svg"
   inkscape:version="0.92.2 (5c3e80d, 2017-08-06)">
  <metadata
     id="metadata3817">
    <rdf:RDF>
      <cc:Work
         rdf:about="">
        <dc:format>image/svg+xml</dc:format>
        <dc:type
           rdf:resource="http://purl.org/dc/dcmitype/StillImage" />
        <dc:title></dc:title>
      </cc:Work>
    </rdf:RDF>
  </metadata>
  <defs
     id="defs3815" />
  <sodipodi:namedview
     pagecolor="#ffffff"
     bordercolor="#666666"
     borderopacity="1"
     objecttolerance="10"
     gridtolerance="10"
     guidetolerance="10"
     inkscape:pageopacity="0"
     inkscape:pageshadow="2"
     inkscape:window-width="2283"
     inkscape:window-height="1335"
     id="namedview3813"
     showgrid="false"
     inkscape:zoom="1.8119002"
     inkscape:cx="61.456519"
     inkscape:cy="238.86264"
     inkscape:window-x="-7"
     inkscape:window-y="0"
     inkscape:window-maximized="0"
     inkscape:current-layer="svg3811" />
  <path
     inkscape:connector-curvature="0"
     id="path3823"
     d="M 1,260.51275 V -0.10385807 L 129.75,0.28188822 C 242.7788,0.62053242 260.02633,0.87114776 271,2.3343221 312.20818,7.8288155 341.2196,17.850675 368.26035,35.932454 374.07346,39.819604 379.23361,43 379.72735,43 c 1.51689,0 18.02962,11.623902 26.11782,18.38527 4.21016,3.5195 12.63825,11.51011 18.72909,17.756911 C 470.09791,125.83147 493.01867,186.76148 492.98588,261 c -0.0269,60.78775 -16.93646,112.1985 -52.45905,159.49272 -41.05618,54.66154 -99.5814,86.4641 -176.52683,95.92454 -30.41832,3.73994 -35.09118,3.87438 -149.25,4.29399 L 1,521.12936 Z M 226,420.524 c 58.06055,-7.22832 100.96951,-40.532 118.09996,-91.66298 1.66933,-4.98259 2.83797,-9.25642 2.59699,-9.4974 -0.24098,-0.24098 -5.20002,2.20994 -11.02009,5.44649 -16.42223,9.13244 -37.37713,16.87887 -55.67686,20.58215 -21.86427,4.42462 -29.84679,4.92582 -88,5.5253 l -56.5,0.58244 -0.26279,35.89393 -0.26278,35.89392 39.26278,-0.60383 C 200.23167,422.28425 217.72421,421.5543 226,420.524 Z m -8,-169.86808 c 13.9408,-1.98313 22.67626,-4.0734 30.12464,-7.20838 20.16712,-8.48823 34.16821,-24.09515 39.77861,-44.34097 2.75658,-9.94744 4.47609,-26.90399 3.6899,-36.38707 -2.30524,-27.80617 -20.34813,-49.01583 -49.45746,-58.13795 C 225.26426,99.294482 218.85458,98.719636 175.5,98.605398 L 135.5,98.5 l -0.25854,76 c -0.1422,41.8 -0.0213,76.62122 0.26869,77.38049 0.73813,1.93271 67.23448,0.94556 82.48985,-1.22457 z"
     style="fill:#ff6600" />
  <path
     style="fill:#1b1bb2;fill-opacity:1;stroke-width:0.55190676"
     d="M 1.4090613,260.44742 V 0.2233782 L 46.52744,0.25455492 c 78.43823,0.0542006 204.23887,0.99229408 214.27781,1.59786618 11.81847,0.7129177 19.21192,1.6941028 31.60057,4.1937132 40.6545,8.2026977 70.98614,22.8528287 94.62764,45.7049907 12.1157,11.711189 20.29589,22.948176 27.77723,38.157104 11.23578,22.841401 15.89133,46.558011 15.27574,77.818861 -0.38547,19.57496 -2.51098,33.95033 -7.58595,51.30559 -9.9807,34.13172 -26.6194,59.97808 -52.41769,81.42498 -29.08685,24.18078 -58.04062,38.26293 -92.99629,45.2303 -18.79746,3.74672 -27.57088,4.22582 -92.096,5.02923 -27.05568,0.33687 -49.31632,0.73628 -49.46809,0.88757 -0.15178,0.15129 -0.34192,38.25319 -0.42255,84.67089 l -0.1466,84.39582 H 68.181161 1.4090613 Z m 205.0333687,-8.5307 c 30.89819,-2.12599 50.01924,-9.02429 64.31786,-23.20394 10.02501,-9.9416 15.79741,-20.93716 18.68806,-35.59798 2.74093,-13.90141 3.19931,-28.66765 1.19073,-38.35752 -5.28592,-25.50055 -23.24988,-43.21411 -52.27164,-51.54299 -14.3994,-4.132443 -23.16591,-4.732978 -69.24771,-4.743713 l -33.45935,-0.0078 -0.34494,1.724703 c -0.49065,2.45328 -0.4131,150.74382 0.0792,151.5176 0.22401,0.35205 1.15155,0.76668 2.06121,0.92141 2.83137,0.48159 60.25883,-0.10926 68.98655,-0.70978 z"
     id="path3699"
     inkscape:connector-curvature="0" />
</svg>
